<?xml version="1.0" encoding="UTF-8"?>
<svg id="_图层_1" data-name="图层 1" xmlns="http://www.w3.org/2000/svg" viewBox="0 0 283.46 283.46">
  <defs>
    <style>
      .cls-1 {
        fill: none;
        stroke: #000;
        stroke-linecap: round;
        stroke-linejoin: round;
        stroke-width: 30px;
      }
    </style>
  </defs>
  <line class="cls-1" x1="167.94" y1="55.05" x2="125.61" y2="97.39"/>
  <line class="cls-1" x1="228.41" y1="115.53" x2="212.28" y2="131.65"/>
  <line class="cls-1" x1="157.86" y1="186.08" x2="115.53" y2="228.41"/>
  <path class="cls-1" d="M228.41,55.05c16.71,16.71,16.71,43.76,0,60.47"/>
  <path class="cls-1" d="M228.41,55.05c-16.71-16.71-43.76-16.71-60.47,0"/>
  <path class="cls-1" d="M55.05,228.41c16.71,16.71,43.76,16.71,60.47,0"/>
  <path class="cls-1" d="M55.05,228.41c-16.71-16.71-16.71-43.76,0-60.47"/>
  <path class="cls-1" d="M157.86,125.61c16.71,16.71,16.71,43.76,0,60.47"/>
  <path class="cls-1" d="M125.61,157.86c-16.71-16.71-16.71-43.76,0-60.47"/>
  <line class="cls-1" x1="71.18" y1="151.81" x2="55.05" y2="167.94"/>
</svg>