<?xml version="1.0" encoding="UTF-8"?>
<svg xmlns="http://www.w3.org/2000/svg" viewBox="0 0 248.94 248.94">
  <defs>
    <style>
      .cls-1 {
        stroke: #fff;
      }

      .cls-1, .cls-2 {
        fill: none;
        stroke-linecap: round;
        stroke-linejoin: round;
        stroke-width: 8px;
      }

      .cls-2 {
        stroke: #000;
      }
    </style>
  </defs>
  <g id="_图层_2" data-name="图层 2">
    <g>
      <g>
        <polygon points="209.51 76.28 166.99 161.32 152.82 132.98 181.17 76.28 209.51 76.28"/>
        <polygon points="209.51 76.28 223.68 104.63 181.17 189.67 166.99 218.02 110.3 104.63 124.47 76.28 152.82 132.98 166.99 161.32 209.51 76.28"/>
        <polygon points="124.47 76.28 110.3 104.63 81.95 104.63 96.13 76.28 124.47 76.28"/>
        <polygon points="110.3 104.63 166.99 218.02 138.65 218.02 124.47 189.67 81.95 104.63 110.3 104.63"/>
        <polygon points="81.95 104.63 124.47 189.67 110.3 218.02 53.61 104.63 67.78 76.28 81.95 104.63"/>
        <polygon points="67.78 76.28 53.61 104.63 25.26 104.63 39.43 76.28 67.78 76.28"/>
        <polygon points="53.61 104.63 110.3 218.02 81.95 218.02 25.26 104.63 53.61 104.63"/>
        <path d="M237.86,67.78v113.39c0,31.33-25.36,56.69-56.69,56.69h-113.39c-31.34,0-56.69-25.36-56.69-56.69v-113.39c0-31.34,25.35-56.69,56.69-56.69h113.39c31.33,0,56.69,25.35,56.69,56.69ZM223.68,104.63l-14.17-28.35h-28.34l-28.35,56.7-28.35-56.7h-28.34l-14.18,28.35-14.17-28.35h-28.35l-14.17,28.35,56.69,113.39h28.35l14.17-28.35,14.18,28.35h28.34l14.18-28.35,42.51-85.04Z"/>
      </g>
      <g>
        <line class="cls-1" x1="25.26" y1="104.63" x2="53.61" y2="104.63"/>
        <line class="cls-1" x1="39.43" y1="76.28" x2="67.78" y2="76.28"/>
        <line class="cls-1" x1="25.26" y1="104.63" x2="39.43" y2="76.28"/>
        <line class="cls-1" x1="53.61" y1="104.63" x2="67.78" y2="76.28"/>
        <line class="cls-1" x1="81.95" y1="218.02" x2="25.26" y2="104.63"/>
        <line class="cls-1" x1="81.95" y1="104.63" x2="67.78" y2="76.28"/>
        <line class="cls-1" x1="110.3" y1="218.02" x2="53.61" y2="104.63"/>
        <line class="cls-1" x1="81.95" y1="218.02" x2="110.3" y2="218.02"/>
        <line class="cls-1" x1="110.3" y1="218.02" x2="124.47" y2="189.67"/>
        <line class="cls-1" x1="81.95" y1="104.63" x2="110.3" y2="104.63"/>
        <line class="cls-1" x1="96.13" y1="76.28" x2="124.47" y2="76.28"/>
        <line class="cls-1" x1="81.95" y1="104.63" x2="96.13" y2="76.28"/>
        <line class="cls-1" x1="110.3" y1="104.63" x2="124.47" y2="76.28"/>
        <polyline class="cls-1" points="138.65 218.02 124.47 189.67 81.95 104.63"/>
        <polyline class="cls-1" points="166.99 161.32 152.82 132.98 124.47 76.28"/>
        <line class="cls-1" x1="166.99" y1="218.02" x2="110.3" y2="104.63"/>
        <line class="cls-1" x1="138.65" y1="218.02" x2="166.99" y2="218.02"/>
        <line class="cls-1" x1="209.51" y1="76.28" x2="181.17" y2="76.28"/>
        <line class="cls-1" x1="223.68" y1="104.63" x2="209.51" y2="76.28"/>
        <polyline class="cls-1" points="166.99 218.02 181.17 189.67 223.68 104.63"/>
        <line class="cls-1" x1="152.82" y1="132.98" x2="181.17" y2="76.28"/>
        <line class="cls-1" x1="166.99" y1="161.32" x2="209.51" y2="76.28"/>
        <path class="cls-2" d="M11.09,67.78c0-31.34,25.35-56.69,56.69-56.69"/>
        <line class="cls-2" x1="237.86" y1="181.17" x2="237.86" y2="67.78"/>
        <line class="cls-2" x1="11.09" y1="67.78" x2="11.09" y2="181.17"/>
        <path class="cls-2" d="M237.86,67.78c0-31.34-25.36-56.69-56.69-56.69"/>
        <line class="cls-2" x1="67.78" y1="11.09" x2="181.17" y2="11.09"/>
        <path class="cls-2" d="M11.09,181.17c0,31.33,25.35,56.69,56.69,56.69"/>
        <path class="cls-2" d="M237.86,181.17c0,31.33-25.36,56.69-56.69,56.69"/>
        <line class="cls-2" x1="67.78" y1="237.86" x2="181.17" y2="237.86"/>
      </g>
    </g>
  </g>
  <g id="_图层_4" data-name="图层 4">
    <line class="cls-1" x1="87.62" y1="59.28" x2="115.97" y2="59.28"/>
    <path class="cls-1" d="M130.14,45.1c0,7.83-6.34,14.17-14.17,14.17"/>
    <path class="cls-1" d="M73.45,45.1c0,7.83,6.34,14.17,14.17,14.17"/>
    <line class="cls-1" x1="87.62" y1="30.93" x2="107.46" y2="30.93"/>
    <path class="cls-1" d="M73.45,45.1c0-7.83,6.34-14.17,14.17-14.17"/>
    <line class="cls-1" x1="141.48" y1="59.28" x2="161.32" y2="59.28"/>
    <path class="cls-1" d="M175.5,45.1c0,7.83-6.34,14.17-14.17,14.17"/>
    <line class="cls-1" x1="132.98" y1="30.93" x2="161.32" y2="30.93"/>
    <path class="cls-1" d="M175.5,45.1c0-7.83-6.34-14.17-14.17-14.17"/>
    <path class="cls-1" d="M118.8,45.1c0-7.83,6.34-14.17,14.17-14.17"/>
  </g>
</svg>